<svg xmlns="http://www.w3.org/2000/svg" viewBox="0 0 64 64"><path fill="#ececf1" d="M53.521 19.067v26.109L30.909 58.231 8.297 45.176V19.067L30.909 6.011l22.612 13.056z"/><path fill="#ffda2d" d="M27.758 38.667h6.061v6.061h-6.061z"/><path fill="#ff641a" d="M37.455 28.97h6.061v6.061h-6.061z"/><path fill="#25d9f8" d="M37.455 38.667h6.061v6.061h-6.061z"/><path fill="#7fe881" d="M18.061 28.97h6.061v6.061h-6.061z"/><path fill="#ff641a" d="M27.758 19.273h6.061v6.061h-6.061z"/><path fill="#ffda2d" d="M37.455 19.273h6.061v6.061h-6.061z"/><path fill="#25d9f8" d="M18.061 38.667h6.061v6.061h-6.061z"/><circle cx="56.848" cy="49.576" r="1.212"/><circle cx="54.424" cy="8.364" r="1.212"/><circle cx="48.364" cy="58.061" r="1.212"/><circle cx="45.333" cy="5.333" r="1.818"/><path fill="#25d9f8" d="M27.758 28.97h6.061v6.061h-6.061zM18.061 19.273h6.061v6.061h-6.061z"/><circle cx="19.273" cy="59.273" r="1.212"/><circle cx="18.061" cy="7.152" r="1.212"/><circle cx="7.758" cy="7.758" r="1.818"/><circle cx="7.758" cy="55.03" r="1.818"/><path d="M30.909 59.444c-.209 0-.419-.054-.606-.162L7.691 46.226a1.212 1.212 0 0 1-.606-1.05V19.067c0-.433.231-.833.606-1.05L30.303 4.961a1.21 1.21 0 0 1 1.212 0l22.612 13.056c.375.217.606.617.606 1.05v26.109c0 .433-.231.833-.606 1.05L31.515 59.281a1.204 1.204 0 0 1-.606.163zm-21.4-14.968 21.4 12.356 21.4-12.356v-24.71L30.909 7.41l-21.4 12.356v24.71z"/><path d="M24.121 26.545H18.06a1.212 1.212 0 0 1-1.212-1.212v-6.061c0-.669.543-1.212 1.212-1.212h6.061c.669 0 1.212.543 1.212 1.212v6.061c0 .67-.542 1.212-1.212 1.212zm-4.848-2.424h3.636v-3.636h-3.636v3.636zm14.545 2.424h-6.061a1.212 1.212 0 0 1-1.212-1.212v-6.061c0-.669.543-1.212 1.212-1.212h6.061c.669 0 1.212.543 1.212 1.212v6.061c0 .67-.542 1.212-1.212 1.212zm-4.848-2.424h3.636v-3.636H28.97v3.636zm14.545 2.424h-6.061a1.212 1.212 0 0 1-1.212-1.212v-6.061c0-.669.543-1.212 1.212-1.212h6.061c.669 0 1.212.543 1.212 1.212v6.061c0 .67-.542 1.212-1.212 1.212zm-4.848-2.424h3.636v-3.636h-3.636v3.636zM24.121 36.242H18.06a1.212 1.212 0 0 1-1.212-1.212v-6.06c0-.669.543-1.212 1.212-1.212h6.061c.669 0 1.212.543 1.212 1.212v6.061c0 .669-.542 1.211-1.212 1.211zm-4.848-2.424h3.636v-3.636h-3.636v3.636zm14.545 2.424h-6.061a1.212 1.212 0 0 1-1.212-1.212v-6.06c0-.669.543-1.212 1.212-1.212h6.061c.669 0 1.212.543 1.212 1.212v6.061c0 .669-.542 1.211-1.212 1.211zm-4.848-2.424h3.636v-3.636H28.97v3.636zm14.545 2.424h-6.061a1.212 1.212 0 0 1-1.212-1.212v-6.06c0-.669.543-1.212 1.212-1.212h6.061c.669 0 1.212.543 1.212 1.212v6.061c0 .669-.542 1.211-1.212 1.211zm-4.848-2.424h3.636v-3.636h-3.636v3.636zM24.121 45.939H18.06a1.212 1.212 0 0 1-1.212-1.212v-6.061c0-.669.543-1.212 1.212-1.212h6.061c.669 0 1.212.543 1.212 1.212v6.061c0 .67-.542 1.212-1.212 1.212zm-4.848-2.424h3.636v-3.636h-3.636v3.636zm14.545 2.424h-6.061a1.212 1.212 0 0 1-1.212-1.212v-6.061c0-.669.543-1.212 1.212-1.212h6.061c.669 0 1.212.543 1.212 1.212v6.061c0 .67-.542 1.212-1.212 1.212zm-4.848-2.424h3.636v-3.636H28.97v3.636zm14.545 2.424h-6.061a1.212 1.212 0 0 1-1.212-1.212v-6.061c0-.669.543-1.212 1.212-1.212h6.061c.669 0 1.212.543 1.212 1.212v6.061c0 .67-.542 1.212-1.212 1.212zm-4.848-2.424h3.636v-3.636h-3.636v3.636z"/></svg>