<svg xmlns="http://www.w3.org/2000/svg" xmlns:svgjs="http://svgjs.com/svgjs" xmlns:xlink="http://www.w3.org/1999/xlink" width="288" height="288"><svg xmlns="http://www.w3.org/2000/svg" width="288" height="288" fill="none" viewBox="0 0 24 24"><path fill="#fff" d="M20 4h-6.93a1 1 0 0 1-.83-.45l-.81-1.21A3 3 0 0 0 8.93 1H4a3 3 0 0 0-3 3v13a3 3 0 0 0 3 3h16a3 3 0 0 0 3-3V7a3 3 0 0 0-3-3Z" class="colorE6E6E6 svgShape"/><path fill="#005fff" d="M20 4h-6.93a1 1 0 0 1-.83-.45l-.82-1.21A3 3 0 0 0 8.93 1H4a3 3 0 0 0-3 3v13a3 3 0 0 0 3 3h9a1 1 0 0 0 0-2H4a1 1 0 0 1-1-1V4a1 1 0 0 1 1-1h4.93a1 1 0 0 1 .83.45l.82 1.21A3 3 0 0 0 13.07 6H20a1 1 0 0 1 1 1v6.81a1 1 0 0 0 2 0V7a3 3 0 0 0-3-3Z" class="color000 svgShape"/><path fill="#005fff" d="M22 18h-2v-2a1 1 0 0 0-2 0v2h-2a1 1 0 0 0 0 2h2v2a1 1 0 0 0 2 0v-2h2a1 1 0 0 0 0-2Z" class="color000 svgShape"/></svg></svg>