<svg xmlns="http://www.w3.org/2000/svg" viewBox="0 0 32 32"><circle cx="5" cy="25" r="2" fill="#90caf9"/><circle cx="5" cy="16" r="2" fill="#90caf9"/><circle cx="5" cy="7" r="2" fill="#90caf9"/><path fill="#1976d2" d="M11 17h18a1 1 0 0 0 0-2H11a1 1 0 0 0 0 2zm0-9h18a1 1 0 1 0 0-2H11a1 1 0 0 0 0 2zm18.06 16H11a1 1 0 0 0 0 2h18.06a1 1 0 0 0 0-2zM5 22a3 3 0 1 0 3 3 3 3 0 0 0-3-3zm0 4a1 1 0 1 1 1-1 1 1 0 0 1-1 1zm0-13a3 3 0 1 0 3 3 3 3 0 0 0-3-3zm0 4a1 1 0 1 1 1-1 1 1 0 0 1-1 1zM5 4a3 3 0 1 0 3 3 3 3 0 0 0-3-3zm0 4a1 1 0 1 1 1-1 1 1 0 0 1-1 1z"/></svg>