<svg xmlns="http://www.w3.org/2000/svg" viewBox="0 0 32 32"><path fill="#d8dbe5" d="M27 2H5A3 3 0 0 0 2 5V7a3 3 0 0 0 3 3H27a3 3 0 0 0 3-3V5A3 3 0 0 0 27 2zM27 12H5a3 3 0 0 0-3 3v2a3 3 0 0 0 3 3H27a3 3 0 0 0 3-3V15A3 3 0 0 0 27 12zM27 22H5a3 3 0 0 0-3 3v2a3 3 0 0 0 3 3H27a3 3 0 0 0 3-3V25A3 3 0 0 0 27 22z"/><path fill="#e7eaf6" d="M5,2A3,3,0,0,0,2,5V7a3,3,0,0,0,3,3H16V2Z"/><path fill="#d8dbe5" d="M27,2H16v8H27a3,3,0,0,0,3-3V5A3,3,0,0,0,27,2Z"/><path fill="#e7eaf6" d="M5,12a3,3,0,0,0-3,3v2a3,3,0,0,0,3,3H16V12Z"/><path fill="#d8dbe5" d="M27,12H16v8H27a3,3,0,0,0,3-3V15A3,3,0,0,0,27,12Z"/><path fill="#e7eaf6" d="M5,22a3,3,0,0,0-3,3v2a3,3,0,0,0,3,3H16V22Z"/><path fill="#d8dbe5" d="M27,22H16v8H27a3,3,0,0,0,3-3V25A3,3,0,0,0,27,22Z"/><path fill="#7295b2" d="M27 10H5A3 3 0 0 1 2 7V5A3 3 0 0 1 5 2H27a3 3 0 0 1 3 3V7A3 3 0 0 1 27 10zM5 4A1 1 0 0 0 4 5V7A1 1 0 0 0 5 8H27a1 1 0 0 0 1-1V5a1 1 0 0 0-1-1zM27 20H5a3 3 0 0 1-3-3V15a3 3 0 0 1 3-3H27a3 3 0 0 1 3 3v2A3 3 0 0 1 27 20zM5 14a1 1 0 0 0-1 1v2a1 1 0 0 0 1 1H27a1 1 0 0 0 1-1V15a1 1 0 0 0-1-1zM27 30H5a3 3 0 0 1-3-3V25a3 3 0 0 1 3-3H27a3 3 0 0 1 3 3v2A3 3 0 0 1 27 30zM5 24a1 1 0 0 0-1 1v2a1 1 0 0 0 1 1H27a1 1 0 0 0 1-1V25a1 1 0 0 0-1-1z"/></svg>