<svg xmlns="http://www.w3.org/2000/svg" enable-background="new 0 0 52 52" viewBox="0 0 52 52"><path fill="#C7D6E5" d="M49.98908,6.18741v5.20632h-8.35954V6.18741c0-1.15691,0.46502-2.20048,1.22503-2.96042
					c0.74859-0.75994,1.7921-1.22503,2.94907-1.22503C48.11752,2.00196,49.98908,3.87353,49.98908,6.18741z"/><path d="M47.10188,2.20767c-0.62995,0.19999-1.19991,0.55995-1.64988,1.01993c-0.75994,0.75988-1.22987,1.79983-1.22987,2.9597
					v5.20956h-2.58979V6.18729c0-1.15987,0.45998-2.19982,1.21992-2.9597c0.74994-0.75994,1.78982-1.22993,2.94969-1.22993
					C46.25192,1.99766,46.69189,2.06766,47.10188,2.20767z" opacity=".05"/><path fill="#E4F1FF" d="M12.48689,2.00196h33.31675c-1.15697,0-2.20048,0.46509-2.94907,1.22503
									c-0.76001,0.75994-1.22503,1.80352-1.22503,2.96042V44.8092c0,2.85838-2.32524,5.18361-5.18361,5.18361H7.30328V7.18557
									C7.30328,4.32719,9.62851,2.00196,12.48689,2.00196z"/><path d="M45.80507,1.99902c-1.15997,0-2.19995,0.46997-2.94995,1.22998c-0.76001,0.76001-1.22003,1.79999-1.22003,2.96002
									v38.62c0,2.87-2.32001,5.17999-5.17999,5.17999H7.30507v-2.90997c8.67004,0,16.53003-3.51001,22.22003-9.20001
									C35.2051,32.19903,38.72512,24.349,38.72512,15.669V1.99902H45.80507z" opacity=".05"/><path fill="#D2E2F2" d="M45.93974 2.00196v.01135c-.04535-.01135-.09076-.01135-.1361-.01135H45.93974zM2.00045 44.81405l29.34295-.0001v.01135c.00001 2.84703 2.32524 5.17226 5.17225 5.17226l-29.34295.0001c-2.8583.00001-5.17225-2.32523-5.17226-5.17225V44.81405z"/><path fill="#D2E2F2" d="M2.00045,44.81405l29.34295-0.0001v0.01135c0.00001,2.84703,2.32524,5.17226,5.17225,5.17226
										l-29.34295,0.0001c-2.8583,0.00001-5.17225-2.32523-5.17226-5.17225V44.81405z"/><path fill="#C7D6E5" d="M2.00045,44.81405l29.34295-0.0001v0.01135c0.00001,2.84703,2.32524,5.17226,5.17225,5.17226
					l-29.34295,0.0001c-2.8583,0.00001-5.17225-2.32523-5.17226-5.17225V44.81405z"/><path d="M36.5128,49.99338H7.1751c-2.13982,0-3.98963-1.30988-4.76959-3.15969c0.61994,0.27,1.30988,0.40994,2.01984,0.40994
					h27.52786C32.82313,48.8835,34.54295,49.99338,36.5128,49.99338z" opacity=".05"/><path fill="#293C66" d="M45.93945,1.00209h-0.13574h-0.00488h-0.00098h-0.00098H45.7959h-0.00488H12.4873
				c-3.40918,0-6.18359,2.77393-6.18359,6.18359V43.8141H2c-0.55273,0-1,0.45898-1,1.01123
				c0,3.40332,2.76953,6.17236,6.17285,6.17236h29.34277c0.00684,0,0.01465,0.00049,0.01953,0
				c0.02203,0,0.04041-0.01111,0.06207-0.01251c3.33905-0.08124,6.03265-2.81726,6.03265-6.17596V12.39369H50
				c0.55273,0,1-0.44775,1-1V6.18764C51,3.21896,48.49252,1.00209,45.93945,1.00209z M3.12012,45.8141h27.30273
				c0.19592,1.21368,0.74835,2.31024,1.54492,3.17871c-2.54111,0.0005,9.19378-0.00181-24.79492,0.00488
				C5.21484,48.9977,3.56738,47.64272,3.12012,45.8141z M40.62988,44.80922c0,2.30304-1.87134,4.1767-4.17303,4.18256
				c-2.27307-0.03235-4.1131-1.88593-4.1131-4.17767c0-0.55225-0.44727-1-1-1H8.30371V7.18568
				c0-2.30664,1.87695-4.18359,4.18359-4.18359h29.2334c-0.6284,0.80554-1.09082,2.0152-1.09082,3.18555
				C40.62988,16.01445,40.62988,34.98583,40.62988,44.80922z M49,10.39369h-6.37012V6.18764c0-4.20945,6.37012-4.14612,6.37012,0
				V10.39369z"/><g><path fill="#F6C560" d="M17.92496,8.80769v5.00406c0,0.28207-0.22076,0.50282-0.5029,0.50282h-5.00405
					c-0.28207,0-0.50282-0.22076-0.50282-0.50282V8.80769c0-0.28207,0.22076-0.50282,0.50282-0.50282h5.00405
					C17.7042,8.30487,17.92496,8.52562,17.92496,8.80769z"/><path fill="#D2E2F2" d="M37.01189,9.88744v2.85694c0,0.23648-0.19911,0.42321-0.43559,0.42321H20.97495
						c-0.23648,0-0.42321-0.18672-0.42321-0.42321V9.88744c0-0.23648,0.18672-0.43559,0.42321-0.43559H36.5763
						C36.81278,9.45185,37.01189,9.65096,37.01189,9.88744z"/><path d="M37.01765,9.89291v2.85772c0,0.23303-0.20855,0.41696-0.44159,0.41696H20.97529
						c-0.23303,0-0.42931-0.18393-0.42931-0.41696v-1.05475h11.86011c1.43496,0,2.66144-0.93214,3.10295-2.2322h1.06703
						C36.8091,9.46367,37.01765,9.65988,37.01765,9.89291z" opacity=".05"/><path fill="#F6C560" d="M17.92496,17.56899v5.00406c0,0.28207-0.22076,0.50282-0.5029,0.50282h-5.00405
					c-0.28207,0-0.50282-0.22076-0.50282-0.50282v-5.00406c0-0.28207,0.22076-0.50282,0.50282-0.50282h5.00405
					C17.7042,17.06617,17.92496,17.28693,17.92496,17.56899z"/><path fill="#D2E2F2" d="M37.01189,18.64874v2.85694c0,0.23648-0.19911,0.42321-0.43559,0.42321H20.97495
						c-0.23648,0-0.42321-0.18673-0.42321-0.42321v-2.85694c0-0.23648,0.18672-0.43559,0.42321-0.43559H36.5763
						C36.81278,18.21315,37.01189,18.41226,37.01189,18.64874z"/><path d="M37.01765,18.65421v2.85772c0,0.23303-0.20855,0.41696-0.44159,0.41696H20.97529
						c-0.23303,0-0.42931-0.18393-0.42931-0.41696v-1.05475h11.86011c1.43496,0,2.66144-0.93213,3.10295-2.2322h1.06703
						C36.8091,18.22497,37.01765,18.42118,37.01765,18.65421z" opacity=".05"/><path fill="#F6C560" d="M17.92496,35.0916v5.00406c0,0.28207-0.22076,0.50282-0.5029,0.50282h-5.00405
					c-0.28207,0-0.50282-0.22076-0.50282-0.50282V35.0916c0-0.28207,0.22076-0.50282,0.50282-0.50282h5.00405
					C17.7042,34.58878,17.92496,34.80953,17.92496,35.0916z"/><path fill="#D2E2F2" d="M37.01189,36.17134v2.85694c0,0.23648-0.19911,0.42321-0.43559,0.42321H20.97495
						c-0.23648,0-0.42321-0.18673-0.42321-0.42321v-2.85694c0-0.23648,0.18672-0.43559,0.42321-0.43559H36.5763
						C36.81278,35.73576,37.01189,35.93486,37.01189,36.17134z"/><path d="M37.01765,36.17682v2.85772c0,0.23303-0.20855,0.41696-0.44159,0.41696H20.97529
						c-0.23303,0-0.42931-0.18393-0.42931-0.41696v-1.05475h11.86011c1.43496,0,2.66144-0.93214,3.10295-2.2322h1.06703
						C36.8091,35.74758,37.01765,35.94378,37.01765,36.17682z" opacity=".05"/><g><path fill="#F6C560" d="M17.92496,26.3303v5.00406c0,0.28207-0.22076,0.50282-0.5029,0.50282h-5.00405
					c-0.28207,0-0.50282-0.22076-0.50282-0.50282V26.3303c0-0.28207,0.22076-0.50282,0.50282-0.50282h5.00405
					C17.7042,25.82747,17.92496,26.04823,17.92496,26.3303z"/><path d="M17.92238 8.80987v5c0 .27997-.22003.5-.5.5h-5c-.28998 0-.51001-.22003-.51001-.5v-.94h.29999c2.35999 0 4.26001-1.91003 4.26001-4.26001V8.30987h.95001C17.70235 8.30987 17.92238 8.52984 17.92238 8.80987zM17.92238 17.56988v5c0 .28998-.22003.50995-.5.50995h-5c-.28998 0-.51001-.21997-.51001-.50995v-.94h.29999c2.35999 0 4.26001-1.91003 4.26001-4.26001v-.29999h.95001C17.70235 17.06988 17.92238 17.28985 17.92238 17.56988zM17.92238 35.08984v5.01001c0 .28003-.22003.5-.5.5h-5c-.28998 0-.51001-.21997-.51001-.5v-.95001h.29999c2.35999 0 4.26001-1.90997 4.26001-4.26001v-.29999h.95001C17.70235 34.58984 17.92238 34.80987 17.92238 35.08984zM17.92238 26.32983v5c0 .29004-.22003.51001-.5.51001h-5c-.28998 0-.51001-.21997-.51001-.51001v-.94h.29999c2.35999 0 4.26001-1.90997 4.26001-4.25995v-.30005h.95001C17.70235 25.82983 17.92238 26.04986 17.92238 26.32983z" opacity=".05"/><path fill="#D2E2F2" d="M37.01189,27.41004v2.85694c0,0.23648-0.19911,0.42321-0.43559,0.42321H20.97495
						c-0.23648,0-0.42321-0.18673-0.42321-0.42321v-2.85694c0-0.23648,0.18672-0.43559,0.42321-0.43559H36.5763
						C36.81278,26.97445,37.01189,27.17356,37.01189,27.41004z"/><path d="M37.01765,27.41551v2.85772c0,0.23303-0.20855,0.41696-0.44159,0.41696H20.97529
						c-0.23303,0-0.42931-0.18393-0.42931-0.41696v-1.05475h11.86011c1.43496,0,2.66144-0.93213,3.10295-2.2322h1.06703
						C36.8091,26.98628,37.01765,27.18248,37.01765,27.41551z" opacity=".05"/></g></g></svg>